<svg width="16" height="16" xmlns="http://www.w3.org/2000/svg" xmlns:svg="http://www.w3.org/2000/svg" xmlns:xlink="http://www.w3.org/1999/xlink">
 <!-- Created with SVG-edit - https://github.com/SVG-Edit/svgedit-->
 <defs>
  <symbol height="16" id="svg_5" viewBox="0 0 16 16" width="16" xmlns="http://www.w3.org/2000/svg">
   <g clip-path="url(#svg_1)" id="svg_2">
    <path d="m12.36,16l-8.72,0c-0.97,0 -1.89,-0.38 -2.57,-1.07c-0.69,-0.68 -1.07,-1.6 -1.07,-2.57l0,-7.27c0,-0.96 0.38,-1.89 1.07,-2.57c0.68,-0.68 1.6,-1.06 2.57,-1.07l8.72,0c0.97,0.01 1.89,0.39 2.57,1.07c0.69,0.68 1.07,1.61 1.07,2.57l0,7.27c0,0.97 -0.38,1.89 -1.07,2.57c-0.68,0.69 -1.6,1.07 -2.57,1.07zm-8.72,-13.09c-0.58,0 -1.14,0.23 -1.55,0.64c-0.4,0.41 -0.63,0.96 -0.64,1.54l0,7.27c0.01,0.58 0.24,1.14 0.64,1.55c0.41,0.4 0.97,0.63 1.55,0.64l8.72,0c0.58,-0.01 1.14,-0.24 1.55,-0.64c0.4,-0.41 0.63,-0.97 0.64,-1.55l0,-7.27c-0.01,-0.58 -0.24,-1.13 -0.64,-1.54c-0.41,-0.41 -0.97,-0.64 -1.55,-0.64l-8.72,0z" fill="#FA8922" fill-opacity="0.6" id="svg_4"/>
    <path d="m8,2.91c-0.1,0 -0.19,-0.02 -0.28,-0.06c-0.09,-0.03 -0.17,-0.09 -0.23,-0.15l-1.46,-1.46c-0.13,-0.14 -0.2,-0.32 -0.2,-0.51c0,-0.19 0.08,-0.37 0.21,-0.51c0.14,-0.13 0.32,-0.21 0.51,-0.21c0.19,0 0.37,0.07 0.51,0.2l0.94,0.94l0.94,-0.94c0.14,-0.13 0.32,-0.2 0.51,-0.2c0.19,0 0.38,0.08 0.51,0.21c0.14,0.14 0.21,0.32 0.21,0.51c0,0.19 -0.07,0.37 -0.2,0.51l-1.46,1.46c-0.06,0.06 -0.14,0.12 -0.23,0.15c-0.09,0.04 -0.18,0.06 -0.28,0.06zm-4.36,7.27c-0.18,0 -0.34,-0.06 -0.47,-0.17c-0.13,-0.11 -0.22,-0.27 -0.25,-0.44c-0.03,-0.17 0.01,-0.34 0.1,-0.49c0.08,-0.15 0.22,-0.26 0.39,-0.32l4.36,-1.45c0.11,-0.04 0.23,-0.05 0.34,-0.03c0.11,0.02 0.22,0.06 0.32,0.13c0.09,0.07 0.17,0.16 0.22,0.26c0.05,0.1 0.08,0.21 0.08,0.33l0,0.44l3.4,-1.13c0.19,-0.06 0.38,-0.04 0.55,0.05c0.17,0.09 0.3,0.24 0.36,0.42c0.06,0.18 0.05,0.37 -0.04,0.54c-0.08,0.17 -0.23,0.31 -0.41,0.37l-4.36,1.45c-0.11,0.04 -0.23,0.05 -0.34,0.03c-0.11,-0.01 -0.22,-0.06 -0.32,-0.13c-0.09,-0.06 -0.16,-0.15 -0.22,-0.25c-0.05,-0.11 -0.08,-0.22 -0.08,-0.34l0,-0.44l-3.4,1.13c-0.08,0.03 -0.16,0.04 -0.23,0.04z" fill="#FA8922" fill-opacity="0.6" id="svg_3"/>
   </g>
   <defs>
    <clipPath id="svg_1">
     <rect fill="white" height="16" id="svg_7" width="16"/>
    </clipPath>
   </defs>
  </symbol>
 </defs>
 <g class="layer">
  <title>Layer 1</title>
  <use id="svg_6" transform="matrix(0.998639 0 0 0.99657 1.99043 11.5889)" x="-2" xlink:href="#svg_5" y="-11.58"/>
 </g>
</svg>